<svg width="1600" height="1000" viewBox="0 0 1600 1000" fill="none" xmlns="http://www.w3.org/2000/svg">
  <defs>
    <linearGradient id="bg" x1="120" y1="40" x2="1500" y2="900" gradientUnits="userSpaceOnUse">
      <stop stop-color="#0E7490"/>
      <stop offset="0.45" stop-color="#155E75"/>
      <stop offset="1" stop-color="#7C2D12"/>
    </linearGradient>
    <linearGradient id="cardA" x1="0" y1="0" x2="1" y2="1">
      <stop stop-color="#F8FAFC" stop-opacity="0.92"/>
      <stop offset="1" stop-color="#E2E8F0" stop-opacity="0.78"/>
    </linearGradient>
    <linearGradient id="cardB" x1="0" y1="0" x2="1" y2="1">
      <stop stop-color="#FDE68A" stop-opacity="0.88"/>
      <stop offset="1" stop-color="#FB923C" stop-opacity="0.72"/>
    </linearGradient>
    <filter id="blur" x="-120" y="-120" width="1840" height="1240" filterUnits="userSpaceOnUse">
      <feGaussianBlur stdDeviation="48"/>
    </filter>
  </defs>

  <rect width="1600" height="1000" fill="url(#bg)"/>

  <g filter="url(#blur)" opacity="0.6">
    <circle cx="320" cy="220" r="180" fill="#22D3EE"/>
    <circle cx="1300" cy="180" r="220" fill="#FDBA74"/>
    <circle cx="1200" cy="760" r="260" fill="#38BDF8"/>
    <circle cx="280" cy="760" r="220" fill="#FB923C"/>
  </g>

  <rect x="120" y="130" width="520" height="300" rx="26" fill="url(#cardA)" opacity="0.9"/>
  <rect x="190" y="200" width="380" height="22" rx="11" fill="#0F172A" opacity="0.2"/>
  <rect x="190" y="242" width="270" height="16" rx="8" fill="#0F172A" opacity="0.14"/>
  <rect x="190" y="272" width="210" height="16" rx="8" fill="#0F172A" opacity="0.14"/>
  <rect x="190" y="316" width="130" height="36" rx="10" fill="#0E7490" opacity="0.82"/>

  <rect x="860" y="560" width="570" height="310" rx="30" fill="url(#cardB)" opacity="0.9"/>
  <rect x="920" y="630" width="320" height="24" rx="12" fill="#7C2D12" opacity="0.26"/>
  <rect x="920" y="672" width="240" height="16" rx="8" fill="#7C2D12" opacity="0.18"/>
  <rect x="920" y="702" width="340" height="16" rx="8" fill="#7C2D12" opacity="0.18"/>
  <rect x="920" y="744" width="160" height="38" rx="12" fill="#0F172A" opacity="0.34"/>

  <rect x="690" y="220" width="260" height="420" rx="26" fill="#0F172A" opacity="0.38"/>
  <rect x="725" y="260" width="190" height="190" rx="20" fill="#F8FAFC" opacity="0.85"/>
  <rect x="760" y="500" width="120" height="18" rx="9" fill="#E2E8F0" opacity="0.75"/>
  <rect x="750" y="536" width="140" height="14" rx="7" fill="#E2E8F0" opacity="0.52"/>

  <rect x="210" y="520" width="430" height="250" rx="24" fill="#FFFFFF" opacity="0.2" stroke="#E0F2FE" stroke-opacity="0.45"/>
  <path d="M250 700C320 650 390 680 460 620C520 570 600 590 620 540" stroke="#BAE6FD" stroke-width="8" stroke-linecap="round" opacity="0.8"/>
</svg>
