<svg width="256" height="256" viewBox="0 0 256 256" xmlns="http://www.w3.org/2000/svg">
  <!-- Dark navy background -->
  <defs>
    <style>
      @media (prefers-color-scheme: dark) {
        rect#bg { fill: #0a1628; }
      }
      @media (prefers-color-scheme: light) {
        rect#bg { fill: #ffffff; }
      }
    </style>
  </defs>
  
  <rect id="bg" width="256" height="256" fill="#0a1628"/>
  
  <!-- Cyan accent circle border -->
  <circle cx="128" cy="128" r="115" fill="none" stroke="#06b6d4" stroke-width="6"/>
  
  <!-- QR-inspired pattern (position markers) -->
  <g fill="#06b6d4">
    <!-- Top-left corner marker -->
    <rect x="25" y="25" width="45" height="45"/>
    <rect x="32" y="32" width="31" height="31" fill="#0a1628"/>
    <rect x="39" y="39" width="17" height="17" fill="#06b6d4"/>
    
    <!-- Top-right corner marker -->
    <rect x="186" y="25" width="45" height="45"/>
    <rect x="193" y="32" width="31" height="31" fill="#0a1628"/>
    <rect x="200" y="39" width="17" height="17" fill="#06b6d4"/>
    
    <!-- Bottom-left corner marker -->
    <rect x="25" y="186" width="45" height="45"/>
    <rect x="32" y="193" width="31" height="31" fill="#0a1628"/>
    <rect x="39" y="200" width="17" height="17" fill="#06b6d4"/>
    
    <!-- Center indicator (IQ pattern) -->
    <rect x="108" y="113" width="6" height="30" fill="#06b6d4"/>
    <rect x="142" y="113" width="6" height="30" fill="#06b6d4"/>
    <rect x="108" y="143" width="40" height="6" fill="#06b6d4"/>
  </g>
  
  <!-- Subtle accent dots -->
  <circle cx="70" cy="70" r="2.5" fill="#06b6d4" opacity="0.6"/>
  <circle cx="186" cy="70" r="2.5" fill="#06b6d4" opacity="0.6"/>
  <circle cx="70" cy="186" r="2.5" fill="#06b6d4" opacity="0.6"/>
</svg>
